<svg width="22" height="27" viewBox="0 0 22 27" fill="none" xmlns="http://www.w3.org/2000/svg">
<path d="M2.53797 0C1.16597 0 0.659973 0.5566 0.659973 2.0658V20.2873C0.659973 20.4578 0.666973 20.6162 0.678973 20.7614C0.712973 21.0936 0.715973 21.4137 0.995973 21.7756C1.02197 21.8174 1.30597 22.0462 1.30597 22.0462C1.45697 22.1298 1.56297 22.187 1.73597 22.2662L10.07 26.1074C10.501 26.3241 10.683 26.411 10.996 26.3989H11C11.317 26.411 11.499 26.3241 11.93 26.1074L20.263 22.2662C20.437 22.187 20.539 22.1298 20.694 22.0462C20.694 22.0462 20.978 21.813 21.004 21.7756C21.284 21.4137 21.287 21.0936 21.321 20.7614C21.333 20.6162 21.341 20.4578 21.341 20.2884V2.0647C21.34 0.5566 20.833 0 19.461 0H2.53797ZM15.894 3.421H16.574C17.708 3.421 18.26 4.0282 18.26 5.2877V7.3546H16.888V5.3713C16.888 4.9676 16.718 4.7806 16.363 4.7806H16.129C15.762 4.7806 15.592 4.9676 15.592 5.3713V11.7656C15.592 12.1682 15.762 12.3552 16.129 12.3552H16.389C16.741 12.3552 16.911 12.1682 16.911 11.7656V9.4776H18.287V11.836C18.287 13.0955 17.723 13.7148 16.586 13.7148H15.894C14.753 13.7148 14.194 13.0911 14.194 11.836V5.3009C14.194 4.0447 14.753 3.421 15.894 3.421ZM3.70597 3.5046H6.81997V4.9093H5.10397V7.7737H6.75597V9.1751H5.10397V12.2265H6.84297V13.6279H3.70597V3.5046ZM7.52297 3.5046H9.71897C10.856 3.5046 11.419 4.1283 11.419 5.3878V8.0773C11.419 9.3368 10.856 9.9572 9.71897 9.9572H8.92497V13.6279H7.52297V3.5046ZM12.051 3.5046H13.449V13.6279H12.051V3.5046ZM8.92097 4.8686V8.5976H9.49997C9.85097 8.5976 10.021 8.4106 10.021 8.0036V5.4626C10.021 5.0556 9.85097 4.8686 9.49997 4.8686H8.92097ZM5.06597 16.038H5.27397L5.31997 16.0457H5.39497L5.43297 16.0589H5.47097L5.50897 16.071L5.54597 16.0798L5.57997 16.0875L5.61397 16.0963L5.64797 16.104L5.68597 16.1172L5.71597 16.1249L5.74597 16.1381L5.78397 16.1502L5.81397 16.1667L5.85297 16.1832L5.88697 16.1997L5.91697 16.2217L5.95497 16.2371L5.98097 16.2591L6.01897 16.2789L6.04897 16.3009L6.08297 16.3207L6.11297 16.346L6.14297 16.3669L6.17297 16.3911L6.20397 16.4164L6.23397 16.445L6.26397 16.4703L6.24197 16.5033L6.21497 16.533L6.19297 16.566L6.16597 16.599L6.14397 16.6287L6.12097 16.6573L6.09397 16.6903L6.07197 16.7233L6.04897 16.753L6.02297 16.786L5.99997 16.819L5.97297 16.852L5.95097 16.8817L5.92797 16.9147L5.90197 16.9477L5.87897 16.9818L5.85297 17.0104L5.82997 17.0434L5.79997 17.0192L5.76997 16.9906L5.73997 16.9686L5.70497 16.9444L5.67897 16.9235L5.64497 16.9026L5.61497 16.8817L5.57997 16.8608L5.54997 16.8443L5.51997 16.8278L5.48997 16.8157L5.45597 16.8025L5.41797 16.7915L5.38797 16.7827L5.34997 16.7739L5.31197 16.7651L5.27397 16.7618H5.23297L5.18697 16.753H5.11197L5.07397 16.7574H5.03597L4.99797 16.7695L4.96397 16.7783L4.92997 16.7904L4.89297 16.8025L4.86297 16.819L4.82497 16.8366L4.79797 16.8564L4.76797 16.8784L4.73797 16.8982L4.71097 16.9235L4.68497 16.9488L4.65797 16.973L4.63597 17.0027L4.60597 17.0313L4.58597 17.0643L4.56797 17.094L4.54497 17.127L4.52997 17.1644L4.50997 17.1974L4.49197 17.2348L4.48097 17.2722L4.46497 17.3096L4.45497 17.3514L4.44997 17.3932L4.43897 17.4306L4.43097 17.4768V17.5175L4.42397 17.5593V17.6583L4.42797 17.7012L4.43097 17.7386L4.43497 17.7793L4.44297 17.8211L4.45397 17.8541L4.45797 17.8959L4.46897 17.9289L4.48097 17.9619L4.49597 18.0048L4.51497 18.0455L4.52997 18.0785L4.54897 18.1115L4.57097 18.1456L4.59397 18.1786L4.61297 18.2083L4.64297 18.2369L4.66597 18.2666L4.69197 18.2908L4.72197 18.3161L4.75197 18.3414L4.78297 18.3623L4.81297 18.3821L4.84697 18.3997L4.88497 18.4162L4.91497 18.4327L4.95297 18.4448L4.99097 18.458L5.02897 18.4657L5.06597 18.4745L5.10397 18.4789L5.14997 18.4822H5.27397L5.31997 18.4745H5.35697L5.39497 18.4613L5.43297 18.4536L5.47097 18.4404L5.50497 18.4327L5.53897 18.4162L5.56897 18.3997L5.60697 18.3821L5.62997 18.3656L5.65997 18.3447V17.963H5.10797V17.347H6.35497V18.7198L6.32897 18.744L6.29897 18.7693L6.27197 18.7902L6.24197 18.8155L6.21197 18.8353L6.18197 18.8606L6.15197 18.8815L6.12097 18.9024L6.08297 18.9233L6.04897 18.9442L6.01897 18.9651L5.98097 18.9816L5.95097 19.0025L5.91297 19.019L5.87497 19.0355L5.83697 19.052L5.80297 19.0685L5.76897 19.0806L5.73497 19.0938L5.69797 19.1059L5.66397 19.118L5.62597 19.1312L5.59197 19.1389L5.55397 19.1477L5.51597 19.1565L5.47797 19.1642L5.44097 19.1686L5.40297 19.173L5.36497 19.1774L5.31997 19.1807L5.28197 19.1851L5.23997 19.1895H5.04397L5.00197 19.1807H4.96397L4.92697 19.173H4.88897L4.85097 19.1598L4.81297 19.1521L4.77497 19.1433L4.73797 19.1356L4.70797 19.1224L4.66997 19.1147L4.63197 19.1015L4.59797 19.085L4.56397 19.0729L4.52597 19.0564L4.49197 19.0399L4.45397 19.0234L4.42397 19.0058L4.38597 18.986L4.35997 18.964L4.32197 18.9442L4.29497 18.9222L4.26497 18.9024L4.23497 18.8771L4.20497 18.8518L4.17097 18.8276L4.14797 18.8023L4.11797 18.777L4.09097 18.7484L4.06497 18.7231L4.03797 18.6945L4.01597 18.6648L3.98897 18.6362L3.96697 18.6032L3.94397 18.5735L3.92497 18.5405L3.90197 18.5075L3.88297 18.4745L3.86497 18.4415L3.84497 18.403L3.82697 18.37L3.81197 18.3326L3.79697 18.2952L3.78097 18.2578L3.76597 18.2204L3.75497 18.1874L3.73997 18.15L3.73197 18.1126L3.72097 18.0752L3.71297 18.0334L3.70197 17.996L3.69397 17.9542L3.69097 17.9168L3.68297 17.875L3.67897 17.8376L3.67597 17.7958L3.67197 17.7551L3.66797 17.7133V17.4845L3.67597 17.4427V17.3976L3.68597 17.3558V17.314L3.69797 17.2722L3.70997 17.2315L3.71697 17.1897L3.72797 17.1523L3.73997 17.1105L3.75097 17.0731L3.76597 17.0313L3.78097 16.9939L3.79697 16.9565L3.81197 16.9191L3.82697 16.8817L3.84597 16.8443L3.86497 16.8113L3.88297 16.7783L3.90297 16.7453L3.92097 16.7123L3.94397 16.6782L3.96697 16.6452L3.98897 16.6122L4.01597 16.5825L4.03797 16.5539L4.06097 16.5242L4.09097 16.4956L4.11397 16.4659L4.14397 16.4406L4.17097 16.412L4.20097 16.3867L4.23097 16.3625L4.26097 16.3405L4.29097 16.3163L4.32097 16.2954L4.35197 16.2745L4.38597 16.2536L4.42397 16.2327L4.45397 16.2129L4.49197 16.1953L4.52597 16.1788L4.56397 16.1579L4.59397 16.1469L4.63197 16.1337L4.66597 16.1172L4.69997 16.1084L4.73397 16.0963L4.77197 16.0875L4.80597 16.0754L4.84297 16.0666H4.88097L4.91897 16.0545H4.95697L4.99497 16.0457H5.03197L5.06597 16.038ZM17.055 16.0457H17.262L17.308 16.0545H17.383L17.421 16.0666H17.466L17.504 16.0798L17.538 16.0875L17.576 16.0963L17.614 16.104L17.648 16.1128L17.686 16.1249L17.723 16.1381L17.753 16.1458L17.791 16.1623L17.829 16.1755L17.859 16.192L17.897 16.2085L17.935 16.225L17.969 16.247L17.996 16.2624L18.033 16.2844L18.067 16.3042L18.097 16.3251L18.132 16.3504L18.162 16.3702L18.192 16.3955L18.222 16.4208L18.252 16.445L18.23 16.478L18.211 16.5121L18.188 16.5451L18.166 16.5781L18.143 16.6155L18.124 16.6485L18.101 16.6815L18.079 16.7156L18.059 16.7486L18.037 16.7816L18.014 16.8146L17.992 16.8487L17.972 16.8861L17.95 16.9191L17.924 16.9521L17.904 16.9851L17.882 17.0192L17.852 16.9939L17.818 16.973L17.788 16.9532L17.758 16.9279L17.723 16.9114L17.693 16.8894L17.655 16.874L17.629 16.8575L17.591 16.8399L17.561 16.8234L17.531 16.8113L17.497 16.7948L17.459 16.7827L17.421 16.7695L17.383 16.7574L17.342 16.7486L17.304 16.7409L17.266 16.7321L17.228 16.7277L17.191 16.7233L17.157 16.72H17.073L17.032 16.7277L16.994 16.7365L16.956 16.7442L16.926 16.7618L16.9 16.7783L16.866 16.8113L16.843 16.8487L16.828 16.8861V16.9895L16.847 17.0357L16.862 17.061L16.888 17.0896L16.926 17.1116L16.956 17.1314L16.994 17.1479L17.032 17.1644L17.081 17.1809L17.111 17.1897L17.141 17.2018L17.179 17.2106L17.209 17.2227L17.247 17.2315L17.289 17.2436L17.33 17.2557L17.372 17.2689L17.414 17.2766L17.451 17.2898L17.493 17.3019L17.531 17.3107L17.568 17.3228L17.606 17.3349L17.644 17.3481L17.682 17.3602L17.716 17.3723L17.754 17.3855L17.791 17.402L17.829 17.4229L17.867 17.4394L17.905 17.4603L17.943 17.4812L17.973 17.5021L18.003 17.5219L18.037 17.5472L18.064 17.5692L18.098 17.5978L18.124 17.6264L18.154 17.6594L18.181 17.6891L18.2 17.7221L18.226 17.7639L18.245 17.7925L18.26 17.8343L18.279 17.8629L18.29 17.9047L18.302 17.9377L18.309 17.9795L18.317 18.0213L18.324 18.0631L18.328 18.1049L18.332 18.1456V18.2501L18.328 18.2952L18.324 18.337L18.321 18.3832L18.313 18.425L18.302 18.4657L18.294 18.5075L18.283 18.5493L18.268 18.5867L18.253 18.6197L18.237 18.6571L18.219 18.6901L18.196 18.7231L18.176 18.7561L18.158 18.7902L18.132 18.8199L18.109 18.8485L18.082 18.8738L18.052 18.9024L18.026 18.9277L17.996 18.953L17.966 18.9728L17.935 18.9981L17.897 19.019L17.867 19.0355L17.829 19.0575L17.791 19.0729L17.754 19.0894L17.716 19.1026L17.678 19.1147L17.648 19.1268L17.61 19.1356L17.572 19.1444L17.542 19.1521L17.504 19.1609H17.466L17.429 19.1686H17.391L17.353 19.1774H17.073L17.036 19.173L16.998 19.1686L16.956 19.1653L16.918 19.1565L16.881 19.1521L16.843 19.1444L16.805 19.1356L16.763 19.1235L16.726 19.1147L16.688 19.1026L16.65 19.0938L16.612 19.0817L16.575 19.0685L16.537 19.052L16.503 19.0399L16.465 19.0278L16.427 19.0102L16.397 18.9937L16.359 18.9772L16.329 18.9563L16.291 18.9398L16.257 18.9189L16.231 18.898L16.193 18.8771L16.166 18.8573L16.132 18.8353L16.102 18.8111L16.072 18.7858L16.042 18.7616L16.012 18.7363L15.985 18.711L15.955 18.6824L15.977 18.6494L16.004 18.6197L16.027 18.5867L16.053 18.5537L16.076 18.524L16.098 18.491L16.125 18.458L16.148 18.4283L16.174 18.3953L16.197 18.3667L16.223 18.3337L16.246 18.3007L16.268 18.271L16.295 18.238L16.318 18.205L16.344 18.1753L16.371 18.1423L16.397 18.1665L16.435 18.1918L16.461 18.2171L16.499 18.2413L16.529 18.2633L16.563 18.2875L16.593 18.3084L16.628 18.3249L16.658 18.3458L16.692 18.3623L16.73 18.3788L16.76 18.3953L16.798 18.4074L16.828 18.425L16.866 18.436L16.903 18.4492L16.941 18.4624L16.979 18.4701L17.017 18.4789L17.055 18.4866H17.096L17.134 18.4998H17.342L17.38 18.491L17.417 18.4822L17.447 18.4745L17.477 18.4624L17.504 18.4448L17.538 18.4206L17.558 18.3909L17.576 18.3579L17.587 18.3161V18.2204L17.572 18.1797L17.55 18.1467L17.527 18.1214L17.493 18.0961L17.466 18.0796L17.429 18.0631L17.391 18.0466L17.346 18.0246L17.319 18.0169L17.289 18.0081L17.251 17.9971L17.221 17.9883L17.183 17.9751L17.145 17.9674L17.104 17.9542L17.066 17.9465L17.024 17.9333L16.987 17.9256L16.949 17.9124L16.911 17.9047L16.873 17.8915L16.835 17.8805L16.798 17.8717L16.764 17.8585L16.73 17.8464L16.696 17.8332L16.658 17.8167L16.616 17.8002L16.578 17.7837L16.541 17.7672L16.503 17.7463L16.465 17.7254L16.439 17.7045L16.401 17.6836L16.374 17.6594L16.34 17.6374L16.318 17.6132L16.291 17.5846L16.261 17.5549L16.238 17.5263L16.216 17.4966L16.196 17.468L16.178 17.435L16.158 17.3976L16.144 17.3679L16.132 17.3349L16.121 17.2975L16.11 17.2645L16.102 17.2227L16.095 17.1853V17.1435L16.087 17.1017V16.9235L16.091 16.8817L16.095 16.8399L16.102 16.8069L16.11 16.7651L16.121 16.7321L16.129 16.6903L16.144 16.6573L16.159 16.6155L16.174 16.5825L16.193 16.5407L16.212 16.5077L16.238 16.4747L16.258 16.4417L16.288 16.4087L16.314 16.379L16.337 16.346L16.371 16.3163L16.393 16.2954L16.427 16.2701L16.457 16.2459L16.487 16.2239L16.525 16.2041L16.555 16.1876L16.594 16.1667L16.624 16.1502L16.662 16.137L16.699 16.1205L16.737 16.1084L16.764 16.0996L16.801 16.0919L16.831 16.0831L16.869 16.0754L16.907 16.0666L16.945 16.0622L16.983 16.0578L17.021 16.0545L17.055 16.0457ZM7.81797 16.0754H8.52497L8.53997 16.1128L8.55497 16.1502L8.56997 16.1876L8.58097 16.2294L8.59597 16.2668L8.61097 16.3042L8.62697 16.3416L8.64197 16.379L8.65297 16.4164L8.67197 16.4571L8.68697 16.4945L8.70197 16.533L8.70997 16.5704L8.72497 16.6078L8.74397 16.6452L8.75897 16.6859L8.77397 16.7233L8.78497 16.7607L8.79997 16.7981L8.81997 16.8355L8.82997 16.8729L8.84597 16.9147L8.85697 16.9565L8.87197 16.9895L8.89197 17.0313L8.90597 17.0643L8.92097 17.1061L8.93297 17.1479L8.94397 17.1809L8.96297 17.2227L8.97797 17.2557L8.99297 17.2975L9.00397 17.3305L9.01997 17.3723L9.03897 17.4141L9.05397 17.4515L9.06497 17.4889L9.07597 17.5263L9.09097 17.5637L9.11097 17.6011L9.12497 17.6418L9.14097 17.6803L9.15097 17.7177L9.16697 17.7551L9.18197 17.7925L9.19697 17.8299L9.21197 17.8706L9.22397 17.908L9.23897 17.9454L9.25797 17.9828L9.27297 18.0202L9.28797 18.0576L9.29597 18.0994L9.31097 18.1368L9.32997 18.1742L9.34497 18.2116L9.35597 18.249L9.37097 18.2864L9.38597 18.3282L9.40597 18.37L9.41597 18.403L9.43197 18.4448L9.44297 18.4778L9.45797 18.5196L9.47697 18.5614L9.49197 18.5944L9.50297 18.6362L9.51897 18.6692L9.52997 18.711L9.54897 18.744L9.56397 18.7858L9.57497 18.8276L9.58997 18.8606L9.60597 18.9024L9.62397 18.9354L9.63997 18.9772L9.64997 19.0179L9.66197 19.0509L9.67697 19.0927L9.69697 19.1257H8.91397L8.89397 19.0894L8.88397 19.052L8.86797 19.0146L8.85297 18.9728L8.84197 18.9354L8.82697 18.898L8.81197 18.8606L8.79997 18.8232L8.78497 18.7858L8.76997 18.7484L8.75897 18.711L8.74397 18.6692L8.72897 18.6318L8.71697 18.5944L8.70197 18.557H7.61697L7.60197 18.5988L7.59097 18.6318L7.57597 18.6736L7.55697 18.7143L7.54897 18.7473L7.53397 18.7902L7.51897 18.8232L7.50797 18.865L7.49297 18.898L7.47797 18.9398L7.46597 18.9728L7.45097 19.0146L7.43597 19.0553L7.42097 19.0883L7.40997 19.1301H6.63497L6.64997 19.0894L6.66497 19.052L6.67997 19.0146L6.69197 18.9728L6.70197 18.9354L6.72197 18.898L6.73697 18.8606L6.75197 18.8232L6.76297 18.7858L6.77797 18.744L6.79797 18.7066L6.81197 18.6692L6.82397 18.6318L6.83497 18.5944L6.84997 18.557L6.86997 18.5152L6.88397 18.4778L6.89897 18.4404L6.91097 18.403L6.92597 18.3656L6.94097 18.3282L6.95597 18.2864L6.97097 18.2446L6.98297 18.2116L6.99797 18.1698L7.01697 18.1368L7.03197 18.095L7.04297 18.0543L7.05397 18.0213L7.06897 17.9795L7.08897 17.9465L7.10297 17.9047L7.11897 17.8717L7.12897 17.8299L7.14497 17.7881L7.16397 17.7551L7.17497 17.7133L7.18997 17.6803L7.20197 17.6385L7.21697 17.5967L7.23597 17.5637L7.25097 17.5219L7.26197 17.4889L7.27697 17.4471L7.28897 17.4141L7.30797 17.3723L7.32297 17.3305L7.33797 17.2931L7.34897 17.2557L7.36397 17.2183L7.38397 17.1809L7.39797 17.1435L7.40597 17.1017L7.42097 17.0643L7.43597 17.0269L7.45497 16.9895L7.46997 16.9521L7.48097 16.9147L7.49697 16.8729L7.51197 16.8322L7.52697 16.7992L7.54197 16.7574L7.55297 16.7244L7.56797 16.6826L7.58297 16.6408L7.60297 16.6078L7.61697 16.566L7.62897 16.533L7.63997 16.4912L7.65497 16.4582L7.67497 16.4164L7.68897 16.3746L7.70097 16.3416L7.71597 16.2998L7.73097 16.2668L7.74997 16.225L7.76097 16.1832L7.77197 16.1502L7.78797 16.1084L7.81797 16.0754ZM10.01 16.0963H10.785L10.807 16.1293L10.827 16.1667L10.849 16.1997L10.868 16.2371L10.887 16.2701L10.906 16.3075L10.924 16.3405L10.947 16.379L10.966 16.412L10.985 16.445L11.004 16.4824L11.023 16.5154L11.049 16.5528L11.064 16.5858L11.084 16.6243L11.106 16.6573L11.129 16.6903L11.144 16.7277L11.166 16.7607L11.186 16.7981L11.2 16.8311L11.227 16.8696L11.246 16.9026L11.265 16.94L11.284 16.973L11.302 17.006L11.325 17.0434L11.344 17.0764L11.363 17.1149L11.382 17.1479L11.401 17.1853L11.423 17.2183L11.443 17.2557L11.461 17.2887L11.484 17.2557L11.499 17.2139L11.522 17.1853L11.544 17.1435L11.564 17.1149L11.578 17.0731L11.605 17.0434L11.624 17.0027L11.639 16.973L11.662 16.94L11.684 16.8982L11.704 16.8696L11.722 16.8278L11.741 16.7981L11.764 16.7574L11.782 16.7277L11.802 16.6859L11.82 16.6573L11.84 16.6243L11.862 16.5825L11.881 16.5528L11.9 16.5121L11.922 16.4824L11.942 16.4406L11.96 16.412L11.983 16.379L12.002 16.3372L12.024 16.3075L12.044 16.2668L12.062 16.2371L12.082 16.1953L12.104 16.1667L12.123 16.1249L12.142 16.0963H12.924V19.1642H12.19V17.3602L12.172 17.3888L12.149 17.4306L12.13 17.4592L12.107 17.4922L12.088 17.534L12.066 17.5637L12.046 17.5967L12.024 17.6385L12.005 17.6671L11.986 17.7001L11.96 17.7331L11.941 17.776L11.918 17.8046L11.899 17.8376L11.881 17.8794L11.858 17.908L11.839 17.941L11.816 17.9828L11.797 18.0125L11.775 18.0455L11.755 18.0873L11.737 18.1159L11.714 18.1489L11.695 18.1907L11.673 18.2204L11.65 18.2534L11.631 18.2864L11.612 18.3282L11.589 18.3579L11.567 18.3909L11.552 18.4327L11.525 18.4613L11.506 18.4943L11.484 18.5361L11.464 18.5658H11.45L11.427 18.5284L11.408 18.4954L11.385 18.4569L11.366 18.4239L11.344 18.3865L11.324 18.3535L11.302 18.3161L11.283 18.2831L11.261 18.2457L11.241 18.2127L11.215 18.1742L11.2 18.1412L11.177 18.1038L11.155 18.0708L11.135 18.0334L11.113 18.0004L11.094 17.9586L11.072 17.9256L11.052 17.8882L11.03 17.8552L11.011 17.8167L10.988 17.7837L10.97 17.7463L10.947 17.7133L10.928 17.6759L10.905 17.6429L10.886 17.6055L10.864 17.5725L10.844 17.534L10.822 17.501L10.803 17.4636L10.777 17.4306L10.762 17.3932L10.739 17.3602V19.1686H10.014V16.1326L10.01 16.0963ZM13.48 16.0963H15.679V16.7893H14.209V17.281H15.531V17.9333H14.21V18.4613H15.699V19.1554H13.484V16.1205L13.48 16.0963ZM8.16197 17.0357L8.14697 17.0775L8.13497 17.1105L8.11997 17.1523L8.10497 17.193L8.09397 17.2304L8.07897 17.2678L8.06297 17.3096L8.04797 17.3514L8.03697 17.3844L8.02197 17.4262L8.00697 17.4592L7.99497 17.501L7.97997 17.5428L7.96497 17.5758L7.95397 17.6176L7.93897 17.6506L7.92397 17.6924L7.90797 17.7342L7.89797 17.7672L7.88197 17.809L7.86697 17.8508L7.85597 17.8838L7.83997 17.9256H8.48297L8.46797 17.8838L8.45597 17.8464L8.44097 17.8046L8.42597 17.7672L8.41497 17.7298L8.39997 17.6924L8.38497 17.6506L8.37297 17.6132L8.35797 17.5758L8.34297 17.5384L8.33197 17.501L8.31697 17.4592L8.30497 17.4218L8.28997 17.3844L8.27497 17.347L8.26397 17.3096L8.24897 17.2689L8.23397 17.2271L8.22197 17.1941L8.20697 17.1523L8.19197 17.1105L8.18097 17.0731L8.16197 17.0357ZM7.01197 22.781H15.025L10.935 24.266L7.01197 22.781Z" fill="#BEBEBE"/>
</svg>
