<svg width="22" height="18" viewBox="0 0 22 18" fill="none" xmlns="http://www.w3.org/2000/svg">
<path d="M19.3621 4.75881C19.2637 12.1787 14.5189 17.2609 7.43592 17.5801C4.515 17.7138 2.3989 16.7703 0.557312 15.6004C2.71614 15.9449 5.39306 15.082 6.82474 13.8564C4.70864 13.6506 3.45577 12.5735 2.86954 10.8401C3.48102 10.9458 4.1252 10.9177 4.70613 10.7947C2.7966 10.1555 1.43302 8.97531 1.36256 6.50232C1.89841 6.74628 2.45702 6.97561 3.19914 7.02082C1.77008 6.20797 0.713374 3.23654 1.92366 1.27166C4.0446 3.59639 6.59585 5.49344 10.7851 5.75007C9.7333 1.25404 15.6913 -1.18403 18.1848 1.83775C19.2389 1.63383 20.0969 1.23391 20.9222 0.79863C20.5825 1.84273 19.9283 2.57239 19.1308 3.1561C20.0063 3.03792 20.7811 2.82401 21.4431 2.49693C21.0325 3.34988 20.1346 4.11476 19.3621 4.75881Z" fill="#CCCCCC"/>
</svg>
