<svg width="24" height="24" viewBox="0 0 24 24" fill="none" xmlns="http://www.w3.org/2000/svg">
<path d="M3.60002 19.2C3.60002 19.2 2.40002 19.2 2.40002 18C2.40002 16.8 3.60002 13.2 9.60002 13.2C15.6 13.2 16.8 16.8 16.8 18C16.8 19.2 15.6 19.2 15.6 19.2H3.60002ZM9.60002 12C10.5548 12 11.4705 11.6207 12.1456 10.9456C12.8207 10.2704 13.2 9.35477 13.2 8.39999C13.2 7.44521 12.8207 6.52953 12.1456 5.8544C11.4705 5.17927 10.5548 4.79999 9.60002 4.79999C8.64525 4.79999 7.72957 5.17927 7.05444 5.8544C6.37931 6.52953 6.00002 7.44521 6.00002 8.39999C6.00002 9.35477 6.37931 10.2704 7.05444 10.9456C7.72957 11.6207 8.64525 12 9.60002 12Z" fill="#AAAAAA"/>
<path fill-rule="evenodd" clip-rule="evenodd" d="M18.6 8.39999C18.6788 8.39999 18.7568 8.41551 18.8296 8.44567C18.9024 8.47582 18.9685 8.52002 19.0242 8.57573C19.08 8.63145 19.1241 8.69759 19.1543 8.77038C19.1845 8.84318 19.2 8.9212 19.2 8.99999V10.8H21C21.0788 10.8 21.1568 10.8155 21.2296 10.8457C21.3024 10.8758 21.3685 10.92 21.4242 10.9757C21.48 11.0314 21.5241 11.0976 21.5543 11.1704C21.5845 11.2432 21.6 11.3212 21.6 11.4C21.6 11.4788 21.5845 11.5568 21.5543 11.6296C21.5241 11.7024 21.48 11.7685 21.4242 11.8243C21.3685 11.88 21.3024 11.9242 21.2296 11.9543C21.1568 11.9845 21.0788 12 21 12H19.2V13.8C19.2 13.9591 19.1368 14.1117 19.0242 14.2243C18.9117 14.3368 18.7591 14.4 18.6 14.4C18.4408 14.4 18.2882 14.3368 18.1757 14.2243C18.0632 14.1117 18 13.9591 18 13.8V12H16.2C16.1212 12 16.0432 11.9845 15.9704 11.9543C15.8976 11.9242 15.8314 11.88 15.7757 11.8243C15.72 11.7685 15.6758 11.7024 15.6456 11.6296C15.6155 11.5568 15.6 11.4788 15.6 11.4C15.6 11.3212 15.6155 11.2432 15.6456 11.1704C15.6758 11.0976 15.72 11.0314 15.7757 10.9757C15.8314 10.92 15.8976 10.8758 15.9704 10.8457C16.0432 10.8155 16.1212 10.8 16.2 10.8H18V8.99999C18 8.9212 18.0155 8.84318 18.0456 8.77038C18.0758 8.69759 18.12 8.63145 18.1757 8.57573C18.2314 8.52002 18.2976 8.47582 18.3704 8.44567C18.4432 8.41551 18.5212 8.39999 18.6 8.39999Z" fill="#AAAAAA"/>
</svg>
